{
    "accessors" : [
        {
            "bufferView" : 0,
            "componentType" : 5121,
            "count" : 240,
            "max" : [
                239
            ],
            "min" : [
                0
            ],
            "type" : "SCALAR"
        },
        {
            "bufferView" : 1,
            "componentType" : 5126,
            "count" : 240,
            "max" : [
                0.9510578513145447,
                1.0,
                0.9999999403953552
            ],
            "min" : [
                -0.9510578513145447,
                -1.0,
                -0.9999999403953552
            ],
            "type" : "VEC3"
        },
        {
            "bufferView" : 2,
            "componentType" : 5126,
            "count" : 240,
            "max" : [
                0.9920774102210999,
                0.9435237646102905,
                0.9435215592384338
            ],
            "min" : [
                -0.9920774102210999,
                -0.9435237646102905,
                -0.9435215592384338
            ],
            "type" : "VEC3"
        },
        {
            "bufferView" : 3,
            "componentType" : 5121,
            "count" : 240,
            "max" : [
                239
            ],
            "min" : [
                0
            ],
            "type" : "SCALAR"
        },
        {
            "bufferView" : 4,
            "componentType" : 5126,
            "count" : 240,
            "max" : [
                0.9510578513145447,
                1.0,
                0.9999999403953552
            ],
            "min" : [
                -0.9510578513145447,
                -1.0,
                -0.9999999403953552
            ],
            "type" : "VEC3"
        },
        {
            "bufferView" : 5,
            "componentType" : 5126,
            "count" : 240,
            "max" : [
                0.9920774102210999,
                0.9435237646102905,
                0.9435215592384338
            ],
            "min" : [
                -0.9920774102210999,
                -0.9435237646102905,
                -0.9435215592384338
            ],
            "type" : "VEC3"
        }
    ],
    "asset" : {
        "generator" : "Khronos Blender glTF 2.0 exporter",
        "version" : "2.0"
    },
    "bufferViews" : [
        {
            "buffer" : 0,
            "byteLength" : 240,
            "byteOffset" : 0,
            "target" : 34963
        },
        {
            "buffer" : 0,
            "byteLength" : 2880,
            "byteOffset" : 240,
            "target" : 34962
        },
        {
            "buffer" : 0,
            "byteLength" : 2880,
            "byteOffset" : 3120,
            "target" : 34962
        },
        {
            "buffer" : 0,
            "byteLength" : 240,
            "byteOffset" : 6000,
            "target" : 34963
        },
        {
            "buffer" : 0,
            "byteLength" : 2880,
            "byteOffset" : 6240,
            "target" : 34962
        },
        {
            "buffer" : 0,
            "byteLength" : 2880,
            "byteOffset" : 9120,
            "target" : 34962
        }
    ],
    "buffers" : [
        {
            "byteLength" : 12000,
            "uri" : "test.bin"
        }
    ],
    "materials" : [
        {
            "name" : "Material.001",
            "pbrMetallicRoughness" : {
                "baseColorFactor" : [
                    0.640000066757203,
                    0.08611302504111862,
                    0.0,
                    1.0
                ],
                "metallicFactor" : 0.0
            }
        }
    ],
    "meshes" : [
        {
            "name" : "Icosphere",
            "primitives" : [
                {
                    "attributes" : {
                        "NORMAL" : 2,
                        "POSITION" : 1
                    },
                    "indices" : 0,
                    "material" : 0
                }
            ]
        },
        {
            "name" : "Icosphere.001",
            "primitives" : [
                {
                    "attributes" : {
                        "NORMAL" : 5,
                        "POSITION" : 4
                    },
                    "indices" : 3
                }
            ]
        }
    ],
    "nodes" : [
        {
            "mesh" : 0,
            "name" : "Icosphere",
            "scale" : [
                0.07248002290725708,
                0.07248002290725708,
                0.07248002290725708
            ]
        },
        {
            "mesh" : 1,
            "name" : "Icosphere.001",
            "scale" : [
                0.17413745820522308,
                0.17413745820522308,
                0.17413745820522308
            ],
            "translation" : [
                0.049008361995220184,
                0.07459810376167297,
                -0.2029055655002594
            ]
        }
    ],
    "scene" : 0,
    "scenes" : [
        {
            "name" : "Scene",
            "nodes" : [
                1,
                0
            ]
        }
    ]
}
